# xmcd CD database file
#
# Track frame offsets:
#	150
#	20437
#	52590
#	77400
#	91575
#	117672
#	146527
#	174947
#	205432
#	231190
#
# Disc length: 3589 seconds
#
# Revision: 0
# Processed by: cddbd v1.5.1PL2 Copyright (c) Steve Scherf et al.
# Submitted via: CDex 1.51
#
DISCID=730e030a
DTITLE=Gary Smulyan - Hidden Treasures
DYEAR=2006
DGENRE=Jazz
TTITLE0=Stretch In F
TTITLE1=Wail Bait
TTITLE2=Bud's Idea
TTITLE3=A Woman Always Understands
TTITLE4=House Of Chan
TTITLE5=Omicron
TTITLE6=A Rose For Wray
TTITLE7=Off The Cuff
TTITLE8=Jahbero
TTITLE9=Fifth House
EXTD=YEAR: 2006
EXTT0=
EXTT1=
EXTT2=
EXTT3=
EXTT4=
EXTT5=
EXTT6=
EXTT7=
EXTT8=
EXTT9=
PLAYORDER=
